<?xml version="1.0" standalone="no"?>
<!DOCTYPE svg PUBLIC "-//W3C//DTD SVG 20010904//EN"
 "http://www.w3.org/TR/2001/REC-SVG-20010904/DTD/svg10.dtd">
<svg version="1.0" xmlns="http://www.w3.org/2000/svg"
 width="500.000000pt" height="500.000000pt" viewBox="0 0 500.000000 500.000000"
 preserveAspectRatio="xMidYMid meet">
<metadata>
Created by potrace 1.11, written by Peter Selinger 2001-2013
</metadata>
<g transform="translate(0.000000,500.000000) scale(0.100000,-0.100000)"
fill="#000000" stroke="none">
<path d="M2255 4924 c-190 -27 -259 -40 -374 -70 -422 -110 -788 -320 -1101
-634 -370 -369 -601 -821 -687 -1345 -26 -157 -26 -583 0 -740 86 -524 317
-976 687 -1345 369 -370 821 -601 1345 -687 157 -26 583 -26 740 0 524 86 976
317 1345 687 314 313 524 679 634 1101 61 234 71 323 71 614 0 291 -10 380
-71 614 -110 422 -320 788 -634 1101 -363 364 -805 593 -1315 682 -95 16 -171
21 -365 23 -135 2 -258 1 -275 -1z m580 -428 c323 -57 624 -188 887 -387 106
-80 297 -271 377 -377 211 -280 345 -600 396 -945 33 -227 17 -541 -40 -767
-91 -363 -267 -673 -534 -941 -268 -267 -578 -443 -941 -534 -301 -76 -669
-76 -970 0 -363 91 -673 267 -941 534 -267 268 -443 578 -534 941 -76 301 -76
669 0 970 91 363 267 673 534 941 302 302 665 491 1086 565 187 33 492 33 680
0z"/>
<path d="M2259 4115 c-353 -57 -640 -200 -893 -444 -241 -233 -394 -512 -468
-851 -19 -91 -22 -134 -22 -320 0 -186 3 -229 22 -320 71 -324 207 -581 431
-814 233 -241 512 -394 851 -468 91 -19 134 -22 320 -22 186 0 229 3 320 22
339 74 618 227 851 468 224 233 360 490 431 814 19 91 22 134 22 320 0 186 -3
229 -22 320 -71 324 -207 581 -431 814 -232 240 -514 395 -846 466 -130 28
-437 36 -566 15z m495 -430 c182 -41 285 -94 396 -205 114 -113 165 -222 177
-377 l6 -83 -226 0 c-252 0 -228 -7 -242 75 -10 57 -53 132 -97 167 -53 42
-121 66 -225 78 -259 31 -437 -87 -409 -273 12 -82 69 -128 216 -175 36 -12
189 -53 340 -92 369 -94 477 -147 597 -295 82 -101 113 -196 113 -347 0 -125
-13 -184 -62 -288 -72 -152 -220 -272 -413 -338 -199 -67 -487 -78 -710 -27
-335 78 -547 281 -601 575 -7 41 -13 92 -14 113 l0 37 230 0 230 0 0 -33 c0
-112 77 -235 185 -296 95 -55 311 -78 447 -50 168 36 272 149 254 278 -8 60
-33 99 -92 143 -66 51 -140 78 -389 144 -255 68 -345 96 -430 134 -183 82
-309 219 -346 376 -16 69 -13 228 6 298 62 235 285 414 584 471 97 19 375 13
475 -10z"/>
</g>
</svg>
